<?xml version="1.0" encoding="iso-8859-1"?>
<!-- Generator: Adobe Illustrator 19.0.0, SVG Export Plug-In . SVG Version: 6.00 Build 0)  -->
<svg version="1.1" id="Layer_1" xmlns="http://www.w3.org/2000/svg" xmlns:xlink="http://www.w3.org/1999/xlink" x="0px" y="0px"
	 viewBox="0 0 512 512" style="enable-background:new 0 0 512 512;" xml:space="preserve">
<path style="fill:#6E96AF;" d="M300.609,89.284H21.355c-7.384,0-13.37,5.987-13.37,13.37v203.89c0,7.381,5.985,13.369,13.37,13.369
	H148.36V205.156c0-7.384,5.985-13.369,13.371-13.369h203.895v-89.133c0-7.382-5.984-13.37-13.368-13.37H327.67"/>
<path style="fill:#85AAC6;" d="M352.257,89.284H173.303C144.067,180.977,188,279.451,274.52,319.911h77.739
	c7.383,0,13.368-5.987,13.368-13.37V102.655C365.625,95.27,359.641,89.284,352.257,89.284z"/>
<rect x="7.984" y="230.784" style="fill:#605F5E;" width="140.378" height="46.793"/>
<rect x="7.984" y="230.784" style="fill:#767574;" width="140.378" height="23.396"/>
<path style="fill:#EBF0F2;" d="M112.158,178.417c0,7.382-5.985,13.371-13.371,13.371H62.021c-7.382,0-13.37-5.987-13.37-13.371
	V141.65c0-7.383,5.987-13.369,13.37-13.369h36.766c7.384,0,13.371,5.985,13.371,13.369V178.417z"/>
<path style="fill:#CCD8DB;" d="M98.787,160.034H62.021c-7.382,0-13.37-5.987-13.37-13.37v31.754c0,7.382,5.987,13.371,13.37,13.371
	h36.766c7.384,0,13.371-5.987,13.371-13.371v-31.754C112.158,154.047,106.172,160.034,98.787,160.034z"/>
<path style="fill:#1BBC86;" d="M256.583,421.413h-95.855c-7.383,0-13.369-5.987-13.369-13.37V204.155
	c0-7.383,5.984-13.37,13.369-13.37H491.63c7.384,0,13.37,5.985,13.37,13.37v203.887c0,7.382-5.985,13.37-13.37,13.37H285.64"/>
<path style="fill:#2ECC93;" d="M491.629,190.785H312.676c-29.231,91.703,14.698,190.167,101.215,230.627h77.739
	c7.384,0,13.37-5.987,13.37-13.37V204.155C505,196.771,499.014,190.785,491.629,190.785z"/>
<g>
	<path style="fill:#37DB59;" d="M147.359,204.155v56.967c41.551,7.492,77.42-29.085,69.413-70.336h-56.044
		C153.343,190.785,147.359,196.771,147.359,204.155z"/>
	<path style="fill:#37DB59;" d="M147.359,408.042v-56.968c41.548-7.47,77.419,29.069,69.413,70.339h-56.044
		C153.343,421.413,147.359,415.426,147.359,408.042z"/>
</g>
<g>
	<path style="fill:#52E86A;" d="M505,204.155v56.967c-41.557,7.498-77.417-29.087-69.412-70.336h56.041
		C499.014,190.785,505,196.771,505,204.155z"/>
	<path style="fill:#52E86A;" d="M505,408.042v-56.968c-41.551-7.474-77.417,29.069-69.412,70.339h56.041
		C499.014,421.413,505,415.426,505,408.042z"/>
</g>
<circle style="fill:#37DB59;" cx="326.18" cy="306.899" r="78.235"/>
<path style="fill:#52E86A;" d="M304.459,231.744c-4.973,56.439,15.121,109.275,51.29,147.599
	c28.545-11.667,48.666-39.695,48.666-72.439C404.416,255.057,354.688,217.25,304.459,231.744z"/>
<path d="M61.426,121.192c-11.493,0-20.843,9.351-20.843,20.843v36.691c0,11.493,9.351,20.843,20.843,20.843h36.691
	c11.493,0,20.843-9.351,20.843-20.843v-36.691c0-11.493-9.351-20.843-20.843-20.843C98.117,121.192,61.426,121.192,61.426,121.192z
	 M103.959,142.034v36.691c0,3.222-2.62,5.842-5.842,5.842H61.426c-3.222,0-5.842-2.62-5.842-5.842v-36.691
	c0-3.222,2.62-5.842,5.842-5.842h36.691C101.339,136.193,103.959,138.813,103.959,142.034z"/>
<path d="M323.272,117.856h-78.571c-4.143,0-7.5,3.357-7.5,7.5c0,4.143,3.357,7.5,7.5,7.5h78.571c4.143,0,7.5-3.357,7.5-7.5
	C330.772,121.213,327.415,117.856,323.272,117.856z"/>
<path d="M323.272,149.545h-78.571c-4.143,0-7.5,3.357-7.5,7.5c0,4.143,3.357,7.5,7.5,7.5h78.571c4.143,0,7.5-3.357,7.5-7.5
	C330.772,152.903,327.415,149.545,323.272,149.545z"/>
<path d="M491.157,184.569c-11.233,0-106.157,0-119.245,0v-81.45c0-11.493-9.351-20.843-20.843-20.843H326.53
	c-4.143,0-7.5,3.357-7.5,7.5c0,4.143,3.357,7.5,7.5,7.5h24.538c3.221,0,5.842,2.621,5.842,5.842v81.45c-8.601,0-187.405,0-195.979,0
	c-11.493,0-20.843,9.351-20.843,20.843v18.071H15.001V103.118c0-3.221,2.621-5.842,5.842-5.842h278.685c4.143,0,7.5-3.357,7.5-7.5
	c0-4.143-3.357-7.5-7.5-7.5H20.843C9.351,82.275,0,91.625,0,103.118c0,7.017,0,197.055,0,203.473
	c0,11.493,9.351,20.843,20.843,20.843h119.245c0,9.853,0,58.415,0,81.448c0,11.493,9.351,20.843,20.843,20.843
	c33.722,0,61.905,0,95.657,0c4.143,0,7.5-3.357,7.5-7.5c0-4.143-3.357-7.5-7.5-7.5h-31.254c2.357-39.916-30.587-72.993-70.245-71.08
	c0-22.813,0-50.199,0-72.995c39.605,1.902,72.604-31.105,70.246-71.079c10.171,0,191.252,0,201.417,0
	c-2.363,40.029,30.698,72.98,70.245,71.079v72.995c-39.609-1.909-72.607,31.116-70.245,71.08H285.588c-4.143,0-7.5,3.357-7.5,7.5
	c0,4.143,3.357,7.5,7.5,7.5c16.618,0,198.802,0,205.568,0c11.493,0,20.843-9.351,20.843-20.843c0-8.551,0-192.332,0-203.471
	C512,193.918,502.649,184.569,491.157,184.569z M140.088,238.484c0,11.22,0,20.287,0,31.697H15.001v-31.697H140.088z
	 M20.843,312.433c-3.221,0-5.842-2.621-5.842-5.842v-21.409h125.088v27.252H20.843z M210.315,414.725h-49.383
	c-3.221,0-5.842-2.62-5.842-5.842v-50.219C186.543,356.714,212.71,383.187,210.315,414.725z M155.089,255.628
	c0-53.099-1.06-53.112,3.06-55.353c1.846-1.006-1.295-0.706,52.165-0.706C212.708,231.092,186.554,257.583,155.089,255.628z
	 M441.774,199.57c53.033,0,52.273-1.069,54.519,3.06c1.006,1.847,0.706-1.011,0.706,53
	C465.463,257.558,439.381,231.051,441.774,199.57z M496.88,410.058c-0.545,2.66-2.904,4.666-5.723,4.666h-49.383
	c-2.398-31.563,23.793-58.01,55.225-56.061C496.999,412.122,497.065,409.156,496.88,410.058z"/>
<path d="M411.623,307.949c0-47.188-38.39-85.577-85.577-85.577c-47.188,0-85.579,38.39-85.579,85.577
	c0,47.189,38.391,85.579,85.579,85.579C373.233,393.528,411.623,355.137,411.623,307.949z M255.466,307.949
	c0-38.916,31.661-70.576,70.578-70.576c38.916,0,70.576,31.66,70.576,70.576c0,38.917-31.66,70.578-70.576,70.578
	C287.127,378.527,255.466,346.867,255.466,307.949z"/>
<path d="M329.557,356.88v-11.732c15.006-0.614,26.024-7.397,26.024-22.397c0-15.331-12.009-19.443-26.982-23.036v-18.451
	c7.634,0.789,16.179,5.355,17.811,7.252l6.505-11.945c-6.621-4.571-14.593-7.654-23.356-8.319v-10.772h-6.398v10.878
	c-26.157,2.187-29.157,27.489-18.983,36.635c4.704,4.238,13.931,7.154,19.942,8.48v18.345c-8.981-0.994-18.823-6.016-21.862-9.066
	l-6.506,12.691c7.594,5.346,17.312,8.877,27.41,9.6v11.839h6.396V356.88z M328.598,314.86c8.346,2.674,11.305,5.069,11.305,9.386
	c0,4.978-3.769,7.572-11.305,7.785V314.86z M313.986,289.583c0-5.19,3.376-7.998,10.132-8.425v17.277
	C316.299,296.157,313.986,293.834,313.986,289.583z"/>
<g>
</g>
<g>
</g>
<g>
</g>
<g>
</g>
<g>
</g>
<g>
</g>
<g>
</g>
<g>
</g>
<g>
</g>
<g>
</g>
<g>
</g>
<g>
</g>
<g>
</g>
<g>
</g>
<g>
</g>
</svg>
