<?xml version="1.0" encoding="iso-8859-1"?>
<!-- Generator: Adobe Illustrator 21.0.0, SVG Export Plug-In . SVG Version: 6.00 Build 0)  -->
<svg version="1.1" id="Capa_1" xmlns="http://www.w3.org/2000/svg" xmlns:xlink="http://www.w3.org/1999/xlink" x="0px" y="0px"
	 viewBox="0 0 512 512" style="enable-background:new 0 0 512 512;" xml:space="preserve">
<rect x="127.75" y="207.906" style="fill:#A696C8;" width="64.125" height="256.501"/>
<rect x="127.75" y="207.906" style="fill:#9784BF;" width="24.047" height="256.501"/>
<circle style="fill:#F38F6D;" cx="159.812" cy="119.734" r="112.219"/>
<circle style="fill:#F6F6F7;" cx="159.812" cy="119.734" r="88.172"/>
<path style="fill:#D9DADE;" d="M183.859,199.89c-48.696,0-88.172-39.476-88.172-88.172c0-34.446,19.756-64.276,48.553-78.785
	c-41.269,7.353-72.6,43.418-72.6,86.801c0,48.696,39.476,88.172,88.172,88.172c14.25,0,27.707-3.385,39.619-9.387
	C194.377,199.419,189.172,199.89,183.859,199.89z"/>
<g>
	<polygon style="fill:#7A7F8D;" points="63.624,504.485 87.671,504.485 95.687,480.438 63.624,480.438 	"/>
	<polygon style="fill:#7A7F8D;" points="448.376,504.485 424.329,504.485 416.313,480.438 448.376,480.438 	"/>
</g>
<rect x="7.515" y="456.391" style="fill:#ECEDEF;" width="496.971" height="24.047"/>
<rect x="247.984" y="296.078" style="fill:#FFE07E;" width="176.344" height="160.313"/>
<rect x="247.984" y="296.078" style="fill:#FFD653;" width="24.047" height="160.313"/>
<rect x="320.125" y="296.078" style="fill:#F0C874;" width="32.063" height="40.078"/>
<rect x="247.984" y="392.266" style="fill:#F6F6F7;" width="104.204" height="32.063"/>
<rect x="247.984" y="392.266" style="fill:#D9DADE;" width="24.047" height="32.063"/>
<path d="M255.499,119.734c0-52.762-42.925-95.687-95.687-95.687s-95.687,42.925-95.687,95.687s42.925,95.687,95.687,95.687
	S255.499,172.496,255.499,119.734z M79.155,119.734c0-44.475,36.183-80.658,80.658-80.658s80.658,36.183,80.658,80.658
	s-36.183,80.658-80.658,80.658S79.155,164.209,79.155,119.734z"/>
<path d="M158.241,91.82c-2.137-3.559-6.752-4.712-10.31-2.577l-28.698,17.219V95.687c0-4.15-3.364-7.515-7.515-7.515
	c-4.151,0-7.515,3.365-7.515,7.515v48.094c0,4.15,3.364,7.515,7.515,7.515c4.151,0,7.515-3.365,7.515-7.515v-10.775l28.698,17.219
	c3.793,2.276,8.861,0.695,10.701-3.318c1.574-3.434,0.268-7.627-2.97-9.569l-29.338-17.603l29.338-17.603
	C159.221,99.995,160.376,95.379,158.241,91.82z"/>
<path d="M175.843,151.296h40.078c4.151,0,7.515-3.365,7.515-7.515v-24.047c0-4.15-3.364-7.515-7.515-7.515H199.89
	c-4.151,0-7.515,3.365-7.515,7.515c0,4.15,3.364,7.515,7.515,7.515h8.517v9.018h-25.049v-33.065h32.564
	c4.151,0,7.515-3.365,7.515-7.515c0-4.15-3.364-7.515-7.515-7.515h-40.078c-4.151,0-7.515,3.365-7.515,7.515v48.094
	C168.329,147.931,171.692,151.296,175.843,151.296z"/>
<path d="M504.485,448.877h-72.642V296.078c0-4.15-3.364-7.515-7.515-7.515H247.984c-4.151,0-7.515,3.365-7.515,7.515v152.798h-41.08
	v-216.14c46.631-16.379,80.157-60.846,80.157-113.003C279.546,53.712,225.834,0,159.812,0S40.078,53.712,40.078,119.734
	c0,52.157,33.525,96.624,80.157,113.003v216.14H7.515c-4.151,0-7.515,3.365-7.515,7.515v24.047c0,4.15,3.364,7.515,7.515,7.515
	H56.11v16.532c0,4.15,3.364,7.515,7.515,7.515h24.047c3.235,0,6.107-2.07,7.129-5.138l6.303-18.909h309.793l6.303,18.909
	c1.023,3.069,3.895,5.138,7.129,5.138h24.047c4.151,0,7.515-3.365,7.515-7.515v-16.532h48.595c4.151,0,7.515-3.365,7.515-7.515
	v-24.047C512,452.241,508.636,448.877,504.485,448.877z M344.673,303.593v25.049H327.64v-25.049H344.673z M255.499,399.781h89.174
	v17.033h-89.174V399.781z M255.499,431.843h96.689c4.151,0,7.515-3.365,7.515-7.515v-32.063c0-4.15-3.364-7.515-7.515-7.515h-96.689
	v-81.159h57.112v32.564c0,4.15,3.364,7.515,7.515,7.515h32.063c4.151,0,7.515-3.365,7.515-7.515v-32.564h57.112v145.284H255.499
	V431.843z M55.108,119.734c0-57.735,46.971-104.704,104.704-104.704s104.705,46.97,104.705,104.704s-46.971,104.704-104.705,104.704
	S55.108,177.469,55.108,119.734z M135.264,236.933c7.926,1.658,16.137,2.535,24.548,2.535s16.621-0.877,24.548-2.535v211.944
	h-49.096V236.933z M82.256,496.971H71.139v-9.018h14.123L82.256,496.971z M440.861,496.971h-11.117l-3.006-9.018h14.123V496.971z
	 M496.971,472.924H15.029v-9.018h481.941V472.924z"/>
<path d="M304.094,360.704h-32.063c-4.151,0-7.515,3.365-7.515,7.515s3.364,7.515,7.515,7.515h32.063
	c4.151,0,7.515-3.365,7.515-7.515S308.245,360.704,304.094,360.704z"/>
<path d="M352.188,360.704h-16.031c-4.151,0-7.515,3.365-7.515,7.515s3.364,7.515,7.515,7.515h16.031
	c4.151,0,7.515-3.365,7.515-7.515S356.339,360.704,352.188,360.704z"/>
<g>
</g>
<g>
</g>
<g>
</g>
<g>
</g>
<g>
</g>
<g>
</g>
<g>
</g>
<g>
</g>
<g>
</g>
<g>
</g>
<g>
</g>
<g>
</g>
<g>
</g>
<g>
</g>
<g>
</g>
</svg>
